<svg width="934" height="619" viewBox="0 0 934 619" fill="none" xmlns="http://www.w3.org/2000/svg">
<g id="image-upload 1" clip-path="url(#clip0)">
<path id="Vector" d="M127.8 0V26.92V486.08H684.08V26.92V0H127.8Z" fill="url(#paint0_linear)"/>
<path id="Vector_2" d="M680.53 0H131.36V15.55H680.53V0Z" fill="#535461"/>
<path id="Vector_3" d="M680.53 15.11H131.36V475.55H680.53V15.11Z" fill="#EDEDF4"/>
<path id="Vector_4" d="M141.58 10.22C143.055 10.22 144.25 9.02461 144.25 7.55C144.25 6.0754 143.055 4.88 141.58 4.88C140.105 4.88 138.91 6.0754 138.91 7.55C138.91 9.02461 140.105 10.22 141.58 10.22Z" fill="#FA595F"/>
<path id="Vector_5" d="M149.57 10.22C151.045 10.22 152.24 9.02461 152.24 7.55C152.24 6.0754 151.045 4.88 149.57 4.88C148.095 4.88 146.9 6.0754 146.9 7.55C146.9 9.02461 148.095 10.22 149.57 10.22Z" fill="#FFC74C"/>
<path id="Vector_6" d="M157.57 10.22C159.045 10.22 160.24 9.02461 160.24 7.55C160.24 6.0754 159.045 4.88 157.57 4.88C156.095 4.88 154.9 6.0754 154.9 7.55C154.9 9.02461 156.095 10.22 157.57 10.22Z" fill="#85D459"/>
<path id="Vector_7" d="M616.55 42.11H195.34V207.4H616.55V42.11Z" fill="white"/>
<path id="Vector_8" d="M616.55 201.4V207.4H610.55" stroke="#6C63FF" stroke-miterlimit="10"/>
<path id="Vector_9" d="M598.86 207.4H207.18" stroke="#6C63FF" stroke-miterlimit="10" stroke-dasharray="11.69 11.69"/>
<path id="Vector_10" d="M201.34 207.4H195.34V201.4" stroke="#6C63FF" stroke-miterlimit="10"/>
<path id="Vector_11" d="M195.34 189.61V54.01" stroke="#6C63FF" stroke-miterlimit="10" stroke-dasharray="11.79 11.79"/>
<path id="Vector_12" d="M195.34 48.11V42.11H201.34" stroke="#6C63FF" stroke-miterlimit="10"/>
<path id="Vector_13" d="M213.03 42.11H604.7" stroke="#6C63FF" stroke-miterlimit="10" stroke-dasharray="11.69 11.69"/>
<path id="Vector_14" d="M610.55 42.11H616.55V48.11" stroke="#6C63FF" stroke-miterlimit="10"/>
<path id="Vector_15" d="M616.55 59.9V195.5" stroke="#6C63FF" stroke-miterlimit="10" stroke-dasharray="11.79 11.79"/>
<path id="Vector_16" d="M513.47 230.5H298.42V239.39H513.47V230.5Z" fill="white"/>
<path id="Vector_17" d="M405.72 313.24H190.67V322.13H405.72V313.24Z" fill="white"/>
<path id="Vector_18" d="M405.72 332.79H190.67V341.68H405.72V332.79Z" fill="white"/>
<path id="Vector_19" d="M405.72 352.34H190.67V361.23H405.72V352.34Z" fill="white"/>
<path id="Vector_20" d="M405.72 371.89H190.67V380.78H405.72V371.89Z" fill="white"/>
<path id="Vector_21" d="M405.72 391.44H190.67V400.33H405.72V391.44Z" fill="white"/>
<path id="Vector_22" d="M405.72 410.99H190.67V419.88H405.72V410.99Z" fill="white"/>
<path id="Vector_23" d="M405.72 430.54H190.67V439.43H405.72V430.54Z" fill="white"/>
<path id="Vector_24" d="M452.15 248.27H359.73V257.16H452.15V248.27Z" fill="white"/>
<path id="Vector_25" opacity="0.5" d="M405.94 169.18C414.727 169.18 423.317 166.574 430.624 161.692C437.93 156.81 443.625 149.871 446.988 141.753C450.351 133.634 451.231 124.701 449.516 116.082C447.802 107.464 443.57 99.5469 437.357 93.3333C431.143 87.1196 423.226 82.888 414.608 81.1737C405.989 79.4594 397.056 80.3392 388.937 83.702C380.819 87.0648 373.88 92.7595 368.998 100.066C364.116 107.372 361.51 115.963 361.51 124.75C361.509 130.585 362.657 136.363 364.889 141.754C367.122 147.145 370.394 152.044 374.52 156.17C378.646 160.296 383.545 163.568 388.936 165.801C394.327 168.033 400.105 169.181 405.94 169.18V169.18ZM405.94 88.92C413.027 88.92 419.954 91.0214 425.846 94.9585C431.738 98.8955 436.331 104.491 439.043 111.038C441.754 117.586 442.464 124.79 441.082 131.74C439.699 138.69 436.287 145.075 431.276 150.086C426.265 155.097 419.88 158.509 412.93 159.892C405.98 161.274 398.776 160.564 392.228 157.853C385.681 155.141 380.085 150.548 376.148 144.656C372.211 138.764 370.11 131.837 370.11 124.75C370.109 120.044 371.035 115.385 372.835 111.037C374.635 106.689 377.274 102.739 380.601 99.4114C383.929 96.0841 387.879 93.4449 392.227 91.6447C396.575 89.8446 401.234 88.9187 405.94 88.92V88.92ZM409.52 147.68H402.35C401.781 147.677 401.235 147.45 400.833 147.047C400.43 146.645 400.203 146.099 400.2 145.53V124.75H388.2C387.775 124.75 387.359 124.624 387.006 124.387C386.652 124.151 386.377 123.815 386.214 123.423C386.051 123.03 386.009 122.598 386.092 122.181C386.175 121.764 386.379 121.381 386.68 121.08L404.42 103.34C404.821 102.949 405.36 102.73 405.92 102.73C406.48 102.73 407.019 102.949 407.42 103.34L425.16 121.08C425.461 121.381 425.665 121.764 425.748 122.181C425.831 122.598 425.788 123.03 425.626 123.423C425.463 123.815 425.188 124.151 424.834 124.387C424.481 124.624 424.065 124.75 423.64 124.75H411.64V145.53C411.638 146.093 411.416 146.632 411.022 147.034C410.628 147.435 410.092 147.667 409.53 147.68H409.52Z" fill="#6C63FF"/>
<path id="Vector_26" d="M148.37 353.25C159.37 393.48 112.44 508.08 112.44 508.08C112.44 508.08 13.7 433.33 2.70001 393.08C0.0153689 383.494 -0.747153 373.471 0.456308 363.589C1.65977 353.707 4.80546 344.16 9.71238 335.498C14.6193 326.836 21.1906 319.23 29.0482 313.118C36.9057 307.005 45.8945 302.506 55.4972 299.881C65.0999 297.255 75.127 296.554 85.0016 297.818C94.8762 299.083 104.403 302.287 113.035 307.247C121.666 312.207 129.232 318.825 135.296 326.72C141.36 334.615 145.803 343.631 148.37 353.25V353.25Z" fill="#6C63FF"/>
<path id="Vector_27" opacity="0.1" d="M148.37 353.25C159.37 393.48 112.44 508.08 112.44 508.08C112.44 508.08 13.7 433.33 2.70001 393.08C0.0153689 383.494 -0.747153 373.471 0.456308 363.589C1.65977 353.707 4.80546 344.16 9.71238 335.498C14.6193 326.836 21.1906 319.23 29.0482 313.118C36.9057 307.005 45.8945 302.506 55.4972 299.881C65.0999 297.255 75.127 296.554 85.0016 297.818C94.8762 299.083 104.403 302.287 113.035 307.247C121.666 312.207 129.232 318.825 135.296 326.72C141.36 334.615 145.803 343.631 148.37 353.25Z" fill="black"/>
<path id="Vector_28" d="M56 300.6C56 300.6 117.47 393.39 112.83 508.35" stroke="#535461" stroke-miterlimit="10"/>
<path id="Vector_29" d="M164.06 426.81C164.06 426.81 108.32 396.49 115.38 508.41C115.38 508.41 161.88 506.75 178.38 468.82C181.612 461.44 182.022 453.131 179.534 445.468C177.045 437.806 171.831 431.323 164.88 427.25L164.06 426.81Z" fill="#FF63D3"/>
<path id="Vector_30" d="M165 427C165 427 157.8 485.1 115.41 508.41" stroke="#535461" stroke-miterlimit="10"/>
<g id="Group" opacity="0.1">
<path id="Vector_31" opacity="0.1" d="M749.1 279.6C749.22 279.45 749.28 279.35 749.28 279.35L749.1 279.6Z" fill="url(#paint1_linear)"/>
</g>
<path id="Vector_32" d="M465.48 70.7V242.6H510.93H534.97H547.27H558.47H574.67H578.25H612.96H625.71H635.28H641.53H641.71H642.03H646.62H656.18H659.9H660.3H660.39H660.62H661.11H668.94H669.45H669.57H684.74H685.22H685.82H703.66H708.98H721.73H749.73H781.61H787.68H788.8H789.85H796.27H797.2H809.43H825.54H833.33H849.28H892.02V70.7H465.48Z" fill="url(#paint2_linear)"/>
<path id="Vector_33" d="M774.72 292.06C774.705 288.987 774.022 285.954 772.72 283.17L760.29 253.42C760.29 253.42 759.84 254.04 759.07 254.89C758.16 247.3 754.7 232.82 741.64 231.89C723.88 230.6 717.64 239.65 721.22 240.51C724.8 241.37 739.87 247.41 739.87 247.41L746.87 258.9C746.74 258.81 746.62 258.72 746.49 258.62L746.75 259.67L746.49 259.48L746.75 260.53L746.49 260.34L753.25 288.24L739.45 300.85C739.45 300.85 726.13 307.32 719.45 306.85C718.187 306.777 716.919 306.803 715.66 306.93L716.16 306.6L720.56 303.68C723.96 301.43 727.51 299 729.21 295.36V295.3C729.36 295.04 729.5 294.77 729.63 294.5C731.42 290.67 730.8 286.26 730.89 282.06C731.086 279.508 731.126 276.947 731.01 274.39C730.712 271.958 730.013 269.593 728.94 267.39C726.952 262.915 723.73 259.099 719.65 256.39C715.466 253.66 710.371 252.7 705.48 253.72C704.697 253.96 703.888 254.101 703.07 254.14C701.49 254.14 700.13 253.14 698.68 252.53C696.834 251.832 694.812 251.747 692.914 252.287C691.016 252.827 689.342 253.964 688.14 255.53C687.14 256.85 686.63 258.42 685.62 259.7C684.12 261.61 681.69 262.81 680.68 265L680.58 265.24C680.45 265.439 680.333 265.646 680.23 265.86C679.23 268.02 679.89 270.53 679.68 272.86C679.353 274.958 678.677 276.986 677.68 278.86C678.101 278.717 678.501 278.519 678.87 278.27C677.693 280.843 677.06 283.631 677.01 286.46C676.96 289.289 677.495 292.097 678.58 294.71C677.998 298.962 676.671 303.079 674.66 306.87L674.53 306.99H674.47L674.11 307.27L673.71 307.54C674.17 306.827 674.7 306.083 675.3 305.31C674.42 306.37 670.3 310.42 661.72 305.5C651.95 299.9 628.87 299.9 628.87 299.9L605.87 289.59C606.29 282.33 608.24 253.98 612.87 252.47C612.421 252.643 611.964 252.793 611.5 252.92V252.92L611.61 252.74L611.72 252.58L611.83 252.43L611.95 252.29L612.06 252.17L612.18 252.05L612.29 251.96L612.42 251.86L612.53 251.79L612.67 251.72L612.85 251.64C612.85 251.64 612.37 251.83 611.59 252.05L612 251.37C612.225 251.099 612.519 250.891 612.85 250.77C612.85 250.77 612.62 250.86 612.24 250.99L618.18 241.29C618.18 241.29 633.27 235.29 636.83 234.39C640.39 233.49 634.17 224.47 616.41 225.77C604.41 226.65 600.51 238.97 599.25 246.85C599.2 246.72 599.14 246.6 599.09 246.46L581.41 292.25C581.41 292.25 581.41 292.46 581.52 292.83L581.41 293.11C581.41 293.11 581.41 293.32 581.52 293.69L581.41 293.97C581.41 293.97 582.74 303.89 592.51 307.77L629.36 329.77C629.36 329.77 645.36 339.25 645.36 362.97C645.36 386.69 648.47 424.19 648.47 424.19C648.47 424.19 649.08 424.55 650.2 425.19C647.42 432.94 642.05 446.78 638.25 449.19C632.92 452.64 619.6 482.39 619.6 482.39H620L619.61 483.25C619.61 483.25 620.35 483.25 621.61 483.25L610.74 504.36C610.74 504.36 607.19 513.84 610.74 519.88C614.29 525.92 613.4 538.42 613.4 538.42C613.4 538.42 620.5 558.68 626.27 568.17C629.2 572.99 629.73 578.91 629.53 583.58L617.39 603.52C617.39 603.52 611.62 608.69 607.18 607.83C605.1 607.43 603.02 610.05 603.27 612.69V612.92C603.27 612.993 603.27 613.063 603.27 613.13C603.27 613.13 603.27 613.19 603.27 613.22C603.27 613.25 603.27 613.38 603.27 613.45V613.52C603.27 613.62 603.27 613.72 603.27 613.82C603.27 613.907 603.287 613.997 603.32 614.09V614.18L603.38 614.39V614.49L603.45 614.7V614.79L603.56 615.04L603.72 615.32V615.39L603.86 615.6L603.93 615.69L604.07 615.87L604.15 615.96L604.32 616.15L604.39 616.22L604.66 616.47L604.92 616.68L605.02 616.75L605.24 616.9L605.36 616.98L605.6 617.12L605.73 617.19L606.04 617.35H606.12L606.54 617.53H606.66L607 617.65L607.17 617.7L607.5 617.8L607.68 617.85L608.05 617.94H608.22L608.79 618.05L609.35 618.13H609.55H609.99H610.23H610.68H612.61H613.22H613.51H614.08H614.39L615.01 618.07H615.3L616.24 617.95C634.44 615.36 655.75 605.88 655.75 605.88C655.867 604.617 655.917 603.348 655.9 602.08C655.96 596.91 655.08 586.63 647.53 583.76H647.14C645.28 578.02 643.77 570.76 645.09 564.58C647.75 552.08 637.54 529.24 637.54 521.47C637.54 519.75 635.32 515.87 639.76 510.26C641.83 507.65 646.59 503.17 651.04 498.26C650.575 498.957 650.068 499.625 649.52 500.26C649.713 500.315 649.911 500.355 650.11 500.38C649.92 500.62 649.73 500.87 649.52 501.12C649.52 501.12 655.43 503.03 660.21 494.59C660.5 494.08 660.79 493.52 661.07 492.93C665.95 482.58 678.38 467.93 684.6 468.79C690.33 469.58 703.24 480.65 705.91 488.45C706.122 489.066 706.269 489.703 706.35 490.35C707.24 498.11 718.78 498.97 718.78 498.97L718.08 498.03L718.52 498.08C721.047 501.985 723.361 506.024 725.45 510.18C729 517.94 728.56 523.11 728.56 523.11C718.79 542.94 722.34 555.01 722.34 567.11C722.306 570.39 721.971 573.661 721.34 576.88C715.01 580.79 713.89 598.15 713.89 598.15L713.95 598.22V598.28V598.51V599.01C713.95 599.01 727 612.54 744.33 614.25L745.14 614.32H745.41H745.92H746.22H746.67H749.05H749.4H749.68H750.02H750.29H750.62H750.87H751.18H751.42H751.72H751.95L752.24 614.26H752.46L752.74 614.2L752.94 614.15L753.21 614.08L753.39 614.03L753.65 613.95L753.82 613.89L754.07 613.8L754.23 613.74L754.47 613.64L754.61 613.58L754.85 613.48L754.98 613.42L755.21 613.31L755.33 613.25L755.55 613.13L755.65 613.07L755.86 612.94L755.95 612.88L756.15 612.74L756.23 612.68L756.42 612.53L756.49 612.48L756.67 612.32L756.73 612.27L756.91 612.1L757.08 611.92L757.24 611.73L757.39 611.53L757.52 611.32L757.64 611.1L757.75 610.87C758.037 610.245 758.148 609.553 758.07 608.87C758.131 608.353 758.081 607.828 757.924 607.332C757.768 606.835 757.507 606.377 757.16 605.989C756.813 605.6 756.388 605.29 755.912 605.078C755.436 604.866 754.921 604.758 754.4 604.76C749.07 604.76 746.4 598.76 746.4 598.76L737 576.54L736.77 576.48C737.17 574.29 737.52 572.16 737.67 570.72C737.94 568.05 743.33 554.8 747.39 545.1C749.838 539.302 751.366 533.159 751.92 526.89C752.194 523.636 752.773 520.415 753.65 517.27C754.751 513.328 754.636 509.146 753.32 505.27C752.213 501.944 751.495 498.501 751.18 495.01C750.71 489.68 748.52 484.29 746.36 480.11H746.55L746.26 479.17L746.55 479.24C746.55 479.24 737.67 450.36 733.23 446.48C730.01 443.67 722.6 430.48 718.6 422.23C719.389 421.154 720.123 420.04 720.8 418.89L720.67 418.24L720.8 418.03L720.67 417.38L720.8 417.17C720.8 417.17 716.29 394.81 716.12 378.75C716.17 373.59 716.74 369.24 718.12 366.75C718.12 366.75 719.9 339.59 734.12 334.42L771 301.71C771 301.71 774.94 299.31 774.75 292.92C774.73 292.64 774.73 292.36 774.72 292.06ZM673.8 308.46L674.2 307.85L673.8 308.46ZM705.27 309.46C705.27 309.46 705.2 309.87 705.02 310.55C704.458 309.559 704.015 308.505 703.7 307.41C704.87 307.15 706.017 306.796 707.13 306.35C707.819 307.132 708.702 307.719 709.69 308.05C708.191 308.441 706.716 308.915 705.27 309.47V309.46ZM714.17 491.07C715.17 492.56 716.17 494.15 717.17 495.77C716.22 494.4 715.06 492.66 714.17 491.08V491.07Z" fill="url(#paint3_linear)"/>
<path id="Vector_34" d="M888.91 73.31H467.7V238.6H888.91V73.31Z" fill="white"/>
<g id="Group_2" opacity="0.6">
<path id="Vector_35" opacity="0.3" d="M846.7 171.57V238.6H512.58V136.94H523.07V111.04H562.96V136.94H573.81V214.6H587.8V189.41H604.6V214.6H618.59V171.57H619.29V149.18H632.59V171.57H663.37V205.16H680.51V194.66H691.02V205.16H708.16V105.79H730.55V90.05H734.4V105.79H740.69V136.94H751.89V111.04H761.33V84.45H780.93V111.04H790.37V136.94H801.92V171.57H817.66V149.18H830.96V171.57H846.7Z" fill="#6C63FF"/>
<path id="Vector_36" opacity="0.4" d="M533.92 144.98H519.23V153.38H533.92V144.98Z" fill="white"/>
<path id="Vector_37" opacity="0.4" d="M552.12 153.37H566.81V144.97H552.12V153.37Z" fill="white"/>
<path id="Vector_38" opacity="0.4" d="M533.92 161.42H519.23V169.82H533.92V161.42Z" fill="white"/>
<path id="Vector_39" opacity="0.4" d="M552.12 169.82H566.81V161.42H552.12V169.82Z" fill="white"/>
<path id="Vector_40" opacity="0.4" d="M533.92 177.87H519.23V186.27H533.92V177.87Z" fill="white"/>
<path id="Vector_41" opacity="0.4" d="M552.12 186.26H566.81V177.86H552.12V186.26Z" fill="white"/>
<path id="Vector_42" opacity="0.4" d="M533.92 194.31H519.23V202.71H533.92V194.31Z" fill="white"/>
<path id="Vector_43" opacity="0.4" d="M552.12 202.71H566.81V194.31H552.12V202.71Z" fill="white"/>
<path id="Vector_44" opacity="0.4" d="M533.92 210.76H519.23V219.16H533.92V210.76Z" fill="white"/>
<path id="Vector_45" opacity="0.4" d="M552.12 219.16H566.81V210.76H552.12V219.16Z" fill="white"/>
<path id="Vector_46" opacity="0.4" d="M533.92 227.2H519.23V235.6H533.92V227.2Z" fill="white"/>
<path id="Vector_47" opacity="0.4" d="M552.12 235.59H566.81V227.19H552.12V235.59Z" fill="white"/>
<path id="Vector_48" opacity="0.4" d="M613.34 223H579.05V227.2H613.34V223Z" fill="white"/>
<path id="Vector_49" opacity="0.4" d="M613.34 229.3H579.05V233.5H613.34V229.3Z" fill="white"/>
<path id="Vector_50" opacity="0.4" d="M613.34 235.59H579.06V238.59H613.34V235.59Z" fill="white"/>
<path id="Vector_51" opacity="0.4" d="M702.91 225.1H668.62V229.3H702.91V225.1Z" fill="white"/>
<path id="Vector_52" opacity="0.4" d="M702.91 231.4H668.62V235.6H702.91V231.4Z" fill="white"/>
<path id="Vector_53" opacity="0.4" d="M702.9 237.7H668.62V238.6H702.9V237.7Z" fill="white"/>
<path id="Vector_54" opacity="0.4" d="M635.39 179.62H625.94V191.87H635.39V179.62Z" fill="white"/>
<path id="Vector_55" opacity="0.4" d="M646.57 191.87H656.02V179.62H646.57V191.87Z" fill="white"/>
<path id="Vector_56" opacity="0.4" d="M635.39 199.21H625.94V211.46H635.39V199.21Z" fill="white"/>
<path id="Vector_57" opacity="0.4" d="M646.57 211.45H656.02V199.2H646.57V211.45Z" fill="white"/>
<path id="Vector_58" opacity="0.4" d="M635.39 218.8H625.94V231.05H635.39V218.8Z" fill="white"/>
<path id="Vector_59" opacity="0.4" d="M646.57 231.05H656.02V218.8H646.57V231.05Z" fill="white"/>
<path id="Vector_60" opacity="0.4" d="M635.38 238.39H625.93V238.59H635.38V238.39Z" fill="white"/>
<path id="Vector_61" opacity="0.4" d="M656.03 238.39H646.58V238.59H656.03V238.39Z" fill="white"/>
<path id="Vector_62" opacity="0.4" d="M720.76 113.84H708.16V129.93H720.76V113.84Z" fill="white"/>
<path id="Vector_63" opacity="0.4" d="M720.76 136.93H708.16V153.02H720.76V136.93Z" fill="white"/>
<path id="Vector_64" opacity="0.4" d="M720.76 160.02H708.16V176.11H720.76V160.02Z" fill="white"/>
<path id="Vector_65" opacity="0.4" d="M720.76 183.12H708.16V199.21H720.76V183.12Z" fill="white"/>
<path id="Vector_66" opacity="0.4" d="M720.76 206.21H708.16V222.3H720.76V206.21Z" fill="white"/>
<path id="Vector_67" opacity="0.4" d="M720.75 229.3H708.16V238.6H720.75V229.3Z" fill="white"/>
<path id="Vector_68" opacity="0.4" d="M794.75 146.73H747.87V160.37H794.75V146.73Z" fill="white"/>
<path id="Vector_69" opacity="0.4" d="M794.92 176.12H748.04V189.76H794.92V176.12Z" fill="white"/>
<path id="Vector_70" opacity="0.4" d="M795.1 205.51H748.22V219.15H795.1V205.51Z" fill="white"/>
<path id="Vector_71" opacity="0.4" d="M788.02 238.6H794.35H795.27V237.06V235.29V234.9H795.15H788.67H785.71H748.39V238.6H779.88H785.88H786.98H788.02Z" fill="white"/>
<path id="Vector_72" opacity="0.4" d="M529.38 118.39H523.08V131.69H529.38V118.39Z" fill="white"/>
<path id="Vector_73" opacity="0.4" d="M846.7 179.62H830.96V199.91H846.7V179.62Z" fill="white"/>
<path id="Vector_74" opacity="0.4" d="M846.7 209.01H830.96V229.3H846.7V209.01Z" fill="white"/>
<path id="Vector_75" opacity="0.4" d="M846.71 238.39H830.96V238.59H846.71V238.39Z" fill="white"/>
<path id="Vector_76" opacity="0.1" d="M605.18 101.13H602.77C603.002 101.148 603.236 101.118 603.456 101.041C603.675 100.964 603.877 100.843 604.048 100.685C604.219 100.527 604.355 100.335 604.449 100.122C604.542 99.9082 604.59 99.6779 604.59 99.445C604.59 99.2121 604.542 98.9818 604.449 98.7684C604.355 98.555 604.219 98.3631 604.048 98.2049C603.877 98.0467 603.675 97.9255 603.456 97.8489C603.236 97.7724 603.002 97.7421 602.77 97.76H583.27C583.038 97.7421 582.804 97.7724 582.584 97.8489C582.365 97.9255 582.163 98.0467 581.992 98.2049C581.821 98.3631 581.685 98.555 581.591 98.7684C581.498 98.9818 581.45 99.2121 581.45 99.445C581.45 99.6779 581.498 99.9082 581.591 100.122C581.685 100.335 581.821 100.527 581.992 100.685C582.163 100.843 582.365 100.964 582.584 101.041C582.804 101.118 583.038 101.148 583.27 101.13H585.68C585.448 101.112 585.214 101.142 584.995 101.219C584.775 101.296 584.573 101.417 584.402 101.575C584.231 101.733 584.095 101.925 584.001 102.138C583.908 102.352 583.86 102.582 583.86 102.815C583.86 103.048 583.908 103.278 584.001 103.492C584.095 103.705 584.231 103.897 584.402 104.055C584.573 104.213 584.775 104.334 584.995 104.411C585.214 104.488 585.448 104.518 585.68 104.5H582.31C582.078 104.482 581.844 104.512 581.625 104.589C581.405 104.666 581.203 104.787 581.032 104.945C580.861 105.103 580.725 105.295 580.631 105.508C580.538 105.722 580.49 105.952 580.49 106.185C580.49 106.418 580.538 106.648 580.631 106.862C580.725 107.075 580.861 107.267 581.032 107.425C581.203 107.583 581.405 107.704 581.625 107.781C581.844 107.858 582.078 107.888 582.31 107.87H601.81C602.234 107.837 602.631 107.646 602.92 107.333C603.209 107.021 603.37 106.611 603.37 106.185C603.37 105.759 603.209 105.349 602.92 105.037C602.631 104.724 602.234 104.533 601.81 104.5H605.18C605.604 104.467 606.001 104.276 606.29 103.963C606.579 103.651 606.74 103.241 606.74 102.815C606.74 102.389 606.579 101.979 606.29 101.667C606.001 101.354 605.604 101.163 605.18 101.13V101.13Z" fill="#252223"/>
<path id="Vector_77" opacity="0.1" d="M691.25 143.47H688.84C689.264 143.437 689.661 143.246 689.95 142.933C690.239 142.621 690.4 142.211 690.4 141.785C690.4 141.359 690.239 140.949 689.95 140.637C689.661 140.324 689.264 140.133 688.84 140.1H669.34C668.916 140.133 668.519 140.324 668.23 140.637C667.941 140.949 667.78 141.359 667.78 141.785C667.78 142.211 667.941 142.621 668.23 142.933C668.519 143.246 668.916 143.437 669.34 143.47H671.75C671.518 143.452 671.284 143.482 671.065 143.559C670.845 143.635 670.643 143.757 670.472 143.915C670.301 144.073 670.165 144.265 670.071 144.478C669.978 144.692 669.93 144.922 669.93 145.155C669.93 145.388 669.978 145.618 670.071 145.832C670.165 146.045 670.301 146.237 670.472 146.395C670.643 146.553 670.845 146.675 671.065 146.751C671.284 146.828 671.518 146.858 671.75 146.84H668.38C667.956 146.873 667.559 147.064 667.27 147.377C666.981 147.689 666.82 148.099 666.82 148.525C666.82 148.951 666.981 149.361 667.27 149.673C667.559 149.986 667.956 150.177 668.38 150.21H687.88C688.304 150.177 688.701 149.986 688.99 149.673C689.279 149.361 689.44 148.951 689.44 148.525C689.44 148.099 689.279 147.689 688.99 147.377C688.701 147.064 688.304 146.873 687.88 146.84H691.25C691.482 146.858 691.716 146.828 691.935 146.751C692.155 146.675 692.357 146.553 692.528 146.395C692.699 146.237 692.835 146.045 692.929 145.832C693.022 145.618 693.07 145.388 693.07 145.155C693.07 144.922 693.022 144.692 692.929 144.478C692.835 144.265 692.699 144.073 692.528 143.915C692.357 143.757 692.155 143.635 691.935 143.559C691.716 143.482 691.482 143.452 691.25 143.47Z" fill="#252223"/>
<path id="Vector_78" opacity="0.1" d="M837.85 88.19H835.44C835.864 88.1573 836.261 87.9656 836.55 87.6532C836.839 87.3408 837 86.9307 837 86.505C837 86.0793 836.839 85.6692 836.55 85.3568C836.261 85.0444 835.864 84.8527 835.44 84.82H815.94C815.708 84.8021 815.474 84.8324 815.255 84.9089C815.035 84.9855 814.833 85.1067 814.662 85.2649C814.491 85.4231 814.355 85.615 814.261 85.8284C814.168 86.0417 814.12 86.2721 814.12 86.505C814.12 86.7379 814.168 86.9682 814.261 87.1816C814.355 87.395 814.491 87.5869 814.662 87.7451C814.833 87.9033 815.035 88.0245 815.255 88.1011C815.474 88.1776 815.708 88.2079 815.94 88.19H818.35C818.118 88.1721 817.884 88.2024 817.664 88.2789C817.445 88.3555 817.243 88.4767 817.072 88.6349C816.901 88.7931 816.765 88.9849 816.671 89.1983C816.578 89.4117 816.53 89.6421 816.53 89.875C816.53 90.1079 816.578 90.3382 816.671 90.5516C816.765 90.765 816.901 90.9569 817.072 91.1151C817.243 91.2733 817.445 91.3945 817.664 91.4711C817.884 91.5476 818.118 91.5779 818.35 91.56H815C814.768 91.5421 814.534 91.5724 814.315 91.6489C814.095 91.7255 813.893 91.8467 813.722 92.0049C813.551 92.1631 813.415 92.355 813.321 92.5684C813.228 92.7818 813.18 93.0121 813.18 93.245C813.18 93.4779 813.228 93.7082 813.321 93.9216C813.415 94.135 813.551 94.3269 813.722 94.4851C813.893 94.6433 814.095 94.7645 814.315 94.8411C814.534 94.9176 814.768 94.9479 815 94.93H834.5C834.924 94.8973 835.321 94.7055 835.61 94.3932C835.899 94.0808 836.06 93.6707 836.06 93.245C836.06 92.8193 835.899 92.4092 835.61 92.0968C835.321 91.7844 834.924 91.5927 834.5 91.56H837.87C838.294 91.5273 838.691 91.3356 838.98 91.0232C839.269 90.7108 839.43 90.3007 839.43 89.875C839.43 89.4493 839.269 89.0392 838.98 88.7268C838.691 88.4144 838.294 88.2227 837.87 88.19H837.85Z" fill="#252223"/>
<path id="Vector_79" opacity="0.6" d="M651.68 209.07L651.26 209.38C651.415 209.298 651.556 209.194 651.68 209.07V209.07Z" fill="url(#paint4_linear)"/>
<path id="Vector_80" opacity="0.6" d="M652 209.4L651.58 209.71C651.735 209.628 651.876 209.524 652 209.4V209.4Z" fill="url(#paint5_linear)"/>
<path id="Vector_81" opacity="0.6" d="M652 209.07L651.58 209.38C651.735 209.298 651.876 209.194 652 209.07V209.07Z" fill="url(#paint6_linear)"/>
<path id="Vector_82" opacity="0.6" d="M634.567 203.161C634.805 203.046 634.875 202.695 634.721 202.376C634.568 202.058 634.249 201.893 634.011 202.008C633.772 202.123 633.703 202.475 633.856 202.793C634.01 203.112 634.328 203.276 634.567 203.161Z" fill="#F2F2F2"/>
</g>
<path id="Vector_83" d="M626.32 477.57L613.57 503.07C613.57 503.07 610.17 512.42 613.57 518.37C616.97 524.32 616.12 536.65 616.12 536.65C616.12 536.65 622.92 556.65 628.45 565.98C633.98 575.31 630.58 588.98 630.58 588.98L652.68 591.53C652.68 591.53 644.18 574.95 646.68 562.62C649.18 550.29 639.45 527.78 639.45 520.11C639.45 518.41 637.32 514.58 641.58 509.06C645.84 503.54 661.98 489.51 661.58 481.43L626.32 477.57Z" fill="#F7BBC3"/>
<path id="Vector_84" d="M739 471.62C739 471.62 747.16 482.92 748.11 493.92C748.396 497.354 749.067 500.746 750.11 504.03C751.365 507.848 751.477 511.95 750.43 515.83C749.588 518.936 749.033 522.113 748.77 525.32C748.246 531.506 746.782 537.575 744.43 543.32C740.54 552.89 735.43 565.95 735.13 568.58C734.7 572.83 732.58 583.03 732.58 583.03L715.58 589.41C715.58 589.41 720.68 577.08 720.68 565.18C720.68 553.28 717.28 541.38 726.68 521.82C726.68 521.82 727.11 516.72 723.68 509.07C720.25 501.42 707.1 481.44 707.1 481.44L739 471.62Z" fill="#F7BBC3"/>
<path id="Vector_85" opacity="0.1" d="M711.48 486.78C710.08 488.3 717.29 497.98 717.29 497.98C717.29 497.98 706.24 497.13 705.39 489.48C705.31 488.844 705.166 488.217 704.96 487.61C702.4 479.92 690.04 469.01 684.56 468.23C678.56 467.38 666.71 481.83 662.03 492.03C661.76 492.62 661.49 493.16 661.21 493.67C656.64 501.99 650.98 500.11 650.98 500.11C653.98 496.41 654.6 493.48 653.66 491.11C649.94 481.94 622.08 482.21 622.08 482.21C622.08 482.21 634.83 452.88 639.93 449.48C645.03 446.08 653.11 420.57 653.11 420.57C653.11 420.57 713.9 413.77 714.32 416.74C714.74 419.71 726.65 443.1 730.9 446.92C735.15 450.74 743.65 479.25 743.65 479.25C729.2 475 713.26 485.41 711.56 486.69L711.48 486.78Z" fill="black"/>
<path id="Vector_86" d="M711.48 485.93C710.08 487.45 717.29 497.13 717.29 497.13C717.29 497.13 706.24 496.28 705.39 488.63C705.31 487.994 705.166 487.367 704.96 486.76C702.4 479.07 690.04 468.16 684.56 467.38C678.56 466.53 666.71 480.98 662.03 491.18C661.76 491.77 661.49 492.31 661.21 492.82C656.64 501.14 651 499.25 651 499.25C654 495.55 654.62 492.62 653.68 490.25C649.96 481.08 622.1 481.35 622.1 481.35C622.1 481.35 634.85 452.02 639.95 448.62C645.05 445.22 653.13 419.71 653.13 419.71C653.13 419.71 713.92 412.91 714.34 415.88C714.76 418.85 726.67 442.24 730.92 446.06C735.17 449.88 743.67 478.37 743.67 478.37C729.22 474.12 713.28 484.53 711.58 485.81L711.48 485.93Z" fill="#F0DF84"/>
<path id="Vector_87" opacity="0.1" d="M631.64 581.08L619.95 600.85C619.95 600.85 614.42 605.95 610.17 605.1C605.92 604.25 601.67 617 619.1 614.45C636.53 611.9 656.93 602.55 656.93 602.55C656.93 602.55 658.84 585.33 649.07 581.55L631.64 581.08Z" fill="black"/>
<path id="Vector_88" opacity="0.1" d="M734.51 574.25L743.65 595.72C743.65 595.72 746.2 601.72 751.3 601.72C756.4 601.72 758.1 612.35 741.52 610.65C724.94 608.95 712.61 595.77 712.61 595.77C712.61 595.77 713.89 575.37 721.54 574.09C725.83 573.274 730.241 573.329 734.51 574.25V574.25Z" fill="black"/>
<path id="Vector_89" d="M631.64 581.93L619.95 601.7C619.95 601.7 614.42 606.8 610.17 605.95C605.92 605.1 601.67 617.85 619.1 615.3C636.53 612.75 656.93 603.4 656.93 603.4C656.93 603.4 658.84 586.18 649.07 582.4L631.64 581.93Z" fill="white"/>
<path id="Vector_90" d="M734.51 575.13L743.65 596.6C743.65 596.6 746.2 602.6 751.3 602.6C756.4 602.6 758.1 613.23 741.52 611.53C724.94 609.83 712.61 596.65 712.61 596.65C712.61 596.65 713.89 576.25 721.54 574.97C725.83 574.154 730.241 574.209 734.51 575.13V575.13Z" fill="white"/>
<g id="Group_3" opacity="0.1">
<path id="Vector_91" opacity="0.1" d="M712.19 415.93C712.62 418.93 724.52 442.29 728.77 446.11C732.67 449.62 740.16 473.93 741.36 477.87C742.13 478.02 742.89 478.19 743.65 478.41C743.65 478.41 735.15 449.93 730.9 446.1C726.65 442.27 714.75 418.89 714.32 415.92C714.24 415.33 711.75 415.12 707.84 415.18C710.5 415.25 712.12 415.46 712.19 415.93Z" fill="black"/>
<path id="Vector_92" opacity="0.1" d="M682.43 467.37C676.43 466.52 664.58 480.97 659.9 491.17C659.63 491.76 659.36 492.3 659.08 492.81C656.44 497.61 653.45 499.01 651.38 499.34C652.75 499.59 657.38 499.8 661.21 492.81C661.49 492.3 661.76 491.76 662.03 491.17C666.32 481.81 676.68 468.89 682.96 467.47L682.43 467.37Z" fill="black"/>
<path id="Vector_93" opacity="0.1" d="M711.48 485.93L711.55 485.86C712.92 484.86 723.55 477.86 735.2 477.43C722.75 477 710.88 484.77 709.42 485.86L709.35 485.93C708.12 487.27 713.54 494.93 714.87 496.73C715.664 496.911 716.469 497.041 717.28 497.12C717.28 497.12 710.08 487.44 711.48 485.93Z" fill="black"/>
</g>
<path id="Vector_94" d="M602.09 255.68C602.09 255.68 602.09 229.75 619.09 228.47C636.09 227.19 642.09 236.12 638.64 236.97C635.19 237.82 620.79 243.77 620.79 243.77L611.44 259.5L602.09 255.68Z" fill="#F7BBC3"/>
<path id="Vector_95" d="M756 261.63C756 261.63 756 235.7 739 234.42C722 233.14 716 242.07 719.45 242.92C722.9 243.77 737.3 249.72 737.3 249.72L746.65 265.45L756 261.63Z" fill="#F7BBC3"/>
<path id="Vector_96" d="M679 288.41C679 288.41 680.28 305.41 669.65 315.19C659.02 324.97 694.34 337.25 694.34 337.25L710.07 318.55C710.07 318.55 697.32 310.9 704.07 297.72L679 288.41Z" fill="#F7BBC3"/>
<path id="Vector_97" opacity="0.1" d="M675.63 308.39C675.63 308.39 671.8 314.39 662.45 308.82C653.1 303.25 631 303.25 631 303.25L608.9 293.05C608.9 293.05 610.6 256.49 615.7 254.79C615.7 254.79 605.5 259.04 602.52 250.54L585.52 295.6C585.52 295.6 586.8 305.38 596.15 309.2L631.43 330.88C631.43 330.88 646.73 340.23 646.73 363.61C646.73 386.99 649.73 423.97 649.73 423.97C649.73 423.97 699 453.76 719 418.91C719 418.91 710.92 377.68 716.45 367.47C716.45 367.47 718.15 340.69 731.75 335.59L767 303.25C767 303.25 773.8 299 768.7 286.67L756.8 257.34C756.8 257.34 749.57 267.54 743.62 262.44L750.42 291.35L736.82 304.1C736.82 304.1 724.07 310.48 717.69 310.1C711.31 309.72 704.09 312.65 704.09 312.65C704.09 312.65 701.09 329.65 687.51 327.95C687.53 327.94 661.6 326.66 675.63 308.39Z" fill="black"/>
<path id="Vector_98" opacity="0.1" d="M675.63 306.69C675.63 306.69 671.8 312.69 662.45 307.12C653.1 301.55 631 301.58 631 301.58L608.9 291.38C608.9 291.38 610.6 254.82 615.7 253.12C615.7 253.12 605.5 257.37 602.52 248.87L585.52 293.93C585.52 293.93 586.8 303.71 596.15 307.53L631.42 329.25C631.42 329.25 646.72 338.6 646.72 361.98C646.72 385.36 649.72 422.34 649.72 422.34C649.72 422.34 699 452.06 719 417.25C719 417.25 710.92 376.02 716.45 365.81C716.45 365.81 718.15 339.03 731.75 333.93L767 301.58C767 301.58 773.8 297.33 768.7 285L756.8 255.67C756.8 255.67 749.57 265.87 743.62 260.77L750.42 289.68L736.82 302.43C736.82 302.43 724.07 308.81 717.69 308.43C711.31 308.05 704.09 310.98 704.09 310.98C704.09 310.98 701.09 327.98 687.51 326.28C687.53 326.25 661.6 324.96 675.63 306.69Z" fill="black"/>
<path id="Vector_99" d="M675.61 307.57L675.44 307.8L675.61 307.57Z" fill="#D39999"/>
<path id="Vector_100" d="M767 302.44L731.72 334.75C718.12 339.85 716.42 366.63 716.42 366.63C710.89 376.83 718.97 418.07 718.97 418.07C698.97 452.93 649.68 423.17 649.68 423.17C649.68 423.17 649.58 421.95 649.42 419.8C649.28 417.92 649.09 415.32 648.88 412.23C648.6 408.23 648.28 403.4 647.98 398.16C647.31 386.71 646.7 373.37 646.7 362.81C646.7 339.43 631.4 330.08 631.4 330.08L605 313.8L596.18 308.38C586.83 304.55 585.55 294.78 585.55 294.78L602.55 249.72C605.33 257.66 614.42 254.47 615.6 254.02C610.6 256.28 608.93 292.23 608.93 292.23L631.03 302.43C631.03 302.43 653.13 302.43 662.49 307.96C670.49 312.66 674.4 309.06 675.4 307.87C661.96 325.87 687.57 327.08 687.57 327.08C701.17 328.78 704.15 311.78 704.15 311.78C704.15 311.78 711.38 308.78 717.75 309.23C724.12 309.68 736.88 303.23 736.88 303.23L750.48 290.48L743.68 261.57C749.68 266.67 756.86 256.47 756.86 256.47L768.76 285.8C773.83 298.18 767 302.44 767 302.44Z" fill="#727272"/>
<path id="Vector_101" opacity="0.1" d="M679 290.11C679.126 292.784 678.988 295.463 678.59 298.11C680.44 302.717 683.875 306.511 688.275 308.809C692.676 311.106 697.753 311.756 702.59 310.64C701.625 306.865 702.166 302.863 704.1 299.48L679 290.11Z" fill="black"/>
<path id="Vector_102" d="M697.95 309.45C709.454 309.45 718.78 300.124 718.78 288.62C718.78 277.116 709.454 267.79 697.95 267.79C686.446 267.79 677.12 277.116 677.12 288.62C677.12 300.124 686.446 309.45 697.95 309.45Z" fill="#F7BBC3"/>
<path id="Vector_103" opacity="0.1" d="M697.61 276.77C697.43 278.88 697.28 281.13 698.25 283.01C698.79 283.955 699.464 284.817 700.25 285.57L704.61 290.06C705.985 291.268 707.051 292.787 707.72 294.49C708.98 298.69 705.26 302.86 705.38 307.25C706.047 308.295 707.037 309.093 708.2 309.523C709.362 309.953 710.634 309.99 711.82 309.63C712.782 309.262 713.688 308.76 714.51 308.14L718.72 305.26C721.97 303.04 725.37 300.64 727 297.06C728.71 293.29 728.13 288.93 728.21 284.79C728.397 282.271 728.433 279.743 728.32 277.22C728.035 274.813 727.359 272.469 726.32 270.28C724.437 265.901 721.351 262.146 717.42 259.45C715.453 258.122 713.238 257.205 710.908 256.753C708.578 256.302 706.181 256.324 703.86 256.82C703.114 257.054 702.341 257.192 701.56 257.23C700.05 257.23 698.75 256.23 697.36 255.64C695.592 254.949 693.646 254.86 691.822 255.386C689.998 255.912 688.399 257.024 687.27 258.55C686.35 259.85 685.82 261.4 684.86 262.66C683.43 264.54 681.1 265.73 680.13 267.88C679.16 270.03 679.81 272.49 679.6 274.81C679.301 276.884 678.662 278.894 677.71 280.76C680.07 279.94 681.22 277.36 682.71 275.38C683.89 273.91 685.371 272.71 687.052 271.858C688.733 271.006 690.577 270.523 692.46 270.44C693.76 270.38 696.17 270.28 697.2 271.27C698.58 272.52 697.75 275.25 697.61 276.77Z" fill="black"/>
<path id="Vector_104" d="M698 275.92C697.82 278.03 697.67 280.28 698.64 282.16C699.18 283.105 699.854 283.967 700.64 284.72L705 289.21C706.375 290.418 707.441 291.937 708.11 293.64C709.37 297.84 705.65 302.01 705.77 306.4C706.437 307.445 707.427 308.243 708.59 308.673C709.752 309.103 711.024 309.14 712.21 308.78C713.209 308.408 714.149 307.893 715 307.25L719.21 304.37C722.46 302.15 725.86 299.75 727.49 296.17C729.2 292.4 728.62 288.04 728.7 283.9C728.887 281.381 728.923 278.853 728.81 276.33C728.525 273.923 727.849 271.579 726.81 269.39C724.927 265.011 721.841 261.256 717.91 258.56C715.943 257.232 713.728 256.315 711.398 255.863C709.068 255.412 706.671 255.434 704.35 255.93C703.604 256.164 702.831 256.302 702.05 256.34C700.54 256.34 699.24 255.34 697.85 254.75C696.082 254.059 694.136 253.97 692.312 254.496C690.488 255.022 688.889 256.134 687.76 257.66C686.84 258.96 686.31 260.51 685.35 261.77C683.92 263.65 681.59 264.84 680.62 266.99C679.65 269.14 680.3 271.6 680.09 273.92C679.791 275.994 679.152 278.004 678.2 279.87C680.56 279.05 681.71 276.47 683.2 274.49C684.38 273.02 685.861 271.82 687.542 270.968C689.223 270.116 691.067 269.633 692.95 269.55C694.25 269.49 696.66 269.39 697.69 270.38C699 271.67 698.17 274.37 698 275.92Z" fill="#8E0C4B"/>
<g id="Group_4" opacity="0.1">
<path id="Vector_105" opacity="0.1" d="M675.46 307.77C675.58 307.62 675.64 307.53 675.64 307.53L675.46 307.77Z" fill="black"/>
<path id="Vector_106" opacity="0.1" d="M747.43 263.05C746.032 263.079 744.675 262.57 743.64 261.63L744.05 263.35C745.182 263.577 746.356 263.473 747.43 263.05V263.05Z" fill="black"/>
<path id="Vector_107" opacity="0.1" d="M672.08 309.98C661.43 326.33 685.41 327.52 685.41 327.52C687.237 327.772 689.097 327.639 690.87 327.13C689.764 327.261 688.646 327.261 687.54 327.13C687.54 327.13 661.84 325.86 675.46 307.81C674.573 308.852 673.396 309.607 672.08 309.98V309.98Z" fill="black"/>
<path id="Vector_108" opacity="0.1" d="M715.59 309.66C717.314 309.703 719.035 309.498 720.7 309.05C719.71 309.222 718.704 309.286 717.7 309.24C715.052 309.128 712.402 309.394 709.83 310.03C711.729 309.685 713.662 309.561 715.59 309.66Z" fill="black"/>
<path id="Vector_109" opacity="0.1" d="M768.72 285.86L756.82 256.53C756.342 257.181 755.828 257.806 755.28 258.4L766.6 286.25C771.7 298.58 764.9 302.83 764.9 302.83L729.62 335.14C716.02 340.24 714.32 367.02 714.32 367.02C708.79 377.22 716.87 418.46 716.87 418.46C711.51 427.81 704.04 432.46 695.97 434.38C704.84 432.87 713.16 428.2 718.97 418.03C718.97 418.03 710.89 376.8 716.42 366.59C716.42 366.59 718.12 339.81 731.72 334.71L767 302.44C767 302.44 773.83 298.18 768.72 285.86Z" fill="black"/>
<path id="Vector_110" opacity="0.1" d="M615.7 253.98C614.828 254.316 613.928 254.574 613.01 254.75C608.35 258.84 606.78 292.66 606.78 292.66L628.88 302.86C628.88 302.86 650.98 302.86 660.34 308.39C664.92 311.1 668.17 311.05 670.34 310.3C668.34 310.42 665.77 309.89 662.51 307.97C653.16 302.44 631.05 302.44 631.05 302.44L608.89 292.25C608.89 292.25 610.59 255.68 615.7 253.98Z" fill="black"/>
<path id="Vector_111" opacity="0.1" d="M612 254.92C608.77 255.34 604.33 254.87 602.53 249.73L601.53 252.38C604.31 256.33 609.4 255.61 612 254.92Z" fill="black"/>
</g>
<path id="Vector_112" opacity="0.1" d="M648 398.15C647.33 386.7 646.72 373.36 646.72 362.8C646.72 339.42 631.42 330.07 631.42 330.07L605 313.8C620.4 317.8 640.89 324.69 642.73 332.8C645.73 345.98 651.23 347.25 649.11 369.8C648.214 379.222 647.843 388.687 648 398.15V398.15Z" fill="black"/>
<path id="Vector_113" opacity="0.1" d="M652 430.6C652 430.6 655.83 442.5 645.2 450.15Z" fill="black"/>
<path id="Vector_114" opacity="0.1" d="M711.55 430.6C711.55 430.6 712.83 439.53 717.93 442.93Z" fill="black"/>
<path id="Vector_115" opacity="0.1" d="M656.93 601.69C656.93 601.69 636.53 611.04 619.1 613.59C610.26 614.88 607 612.24 606.49 609.44C605.91 612.71 608.49 616.85 619.1 615.29C636.53 612.74 656.93 603.39 656.93 603.39C657.06 601.977 657.107 600.558 657.07 599.14C657 600.7 656.93 601.69 656.93 601.69Z" fill="black"/>
<path id="Vector_116" opacity="0.1" d="M741.94 610.62C725.36 608.92 713.03 595.74 713.03 595.74C713.03 595.74 713.66 585.68 716.68 579.25C713.29 585.6 712.6 596.59 712.6 596.59C712.6 596.59 724.93 609.77 741.51 611.47C749.98 612.34 753.68 609.99 754.59 607.47C753.2 609.64 749.44 611.39 741.94 610.62Z" fill="black"/>
<path id="Vector_117" d="M611.89 331.9H505.25V402.99H611.89V331.9Z" fill="white"/>
<path id="Vector_118" d="M870 512.63C870 512.63 851.26 449 873.51 402.18C882.961 382.611 885.813 360.507 881.64 339.18C879.573 329.065 876.584 319.16 872.71 309.59" stroke="#535461" stroke-width="2" stroke-miterlimit="10"/>
<path id="Vector_119" d="M886.6 279.94C886.6 287.74 872.48 310.35 872.48 310.35C872.48 310.35 858.36 287.74 858.36 279.94C858.36 276.195 859.848 272.604 862.496 269.956C865.144 267.308 868.735 265.82 872.48 265.82C876.225 265.82 879.816 267.308 882.464 269.956C885.112 272.604 886.6 276.195 886.6 279.94V279.94Z" fill="#FF63D3"/>
<path id="Vector_120" d="M909.94 323.14C905.7 329.69 881.56 340.99 881.56 340.99C881.56 340.99 882 314.34 886.24 307.79C888.303 304.709 891.494 302.563 895.126 301.816C898.757 301.068 902.537 301.779 905.649 303.794C908.761 305.81 910.955 308.968 911.758 312.588C912.561 316.208 911.908 319.998 909.94 323.14V323.14Z" fill="#FF63D3"/>
<path id="Vector_121" d="M908.92 396.94C901.92 400.45 875.41 398.03 875.41 398.03C875.41 398.03 889.24 375.24 896.21 371.73C897.87 370.845 899.69 370.301 901.564 370.13C903.437 369.958 905.326 370.163 907.119 370.732C908.912 371.3 910.574 372.221 912.006 373.441C913.438 374.661 914.612 376.155 915.459 377.834C916.306 379.514 916.809 381.346 916.938 383.223C917.066 385.1 916.819 386.983 916.21 388.763C915.601 390.543 914.642 392.183 913.39 393.587C912.138 394.992 910.619 396.131 908.92 396.94V396.94Z" fill="#FF63D3"/>
<path id="Vector_122" d="M895.57 452.62C889.3 457.26 862.73 459.35 862.73 459.35C862.73 459.35 872.51 434.55 878.78 429.92C880.267 428.774 881.968 427.937 883.783 427.456C885.598 426.976 887.491 426.862 889.35 427.122C891.209 427.382 892.998 428.01 894.612 428.969C896.226 429.929 897.632 431.2 898.749 432.71C899.865 434.219 900.669 435.936 901.114 437.76C901.559 439.584 901.636 441.478 901.34 443.332C901.044 445.186 900.381 446.962 899.391 448.557C898.4 450.152 897.101 451.533 895.57 452.62V452.62Z" fill="#FF63D3"/>
<path id="Vector_123" d="M851.91 342.5C857.5 347.93 883.56 353.56 883.56 353.56C883.56 353.56 877.18 327.68 871.56 322.24C868.864 319.687 865.271 318.298 861.558 318.375C857.846 318.452 854.313 319.988 851.725 322.651C849.137 325.314 847.702 328.889 847.731 332.602C847.76 336.316 849.251 339.868 851.88 342.49L851.91 342.5Z" fill="#FF63D3"/>
<path id="Vector_124" d="M837.13 407.81C844.13 411.32 870.64 408.9 870.64 408.9C870.64 408.9 856.81 386.11 849.84 382.6C846.509 381.014 842.689 380.795 839.198 381.99C835.708 383.184 832.823 385.698 831.162 388.992C829.501 392.287 829.196 396.101 830.311 399.617C831.427 403.134 833.874 406.075 837.13 407.81V407.81Z" fill="#FF63D3"/>
<path id="Vector_125" d="M831.47 473.25C837.74 477.89 864.31 479.98 864.31 479.98C864.31 479.98 854.53 455.18 848.26 450.55C845.245 448.41 841.511 447.537 837.86 448.12C834.21 448.703 830.933 450.695 828.734 453.667C826.536 456.64 825.591 460.356 826.102 464.017C826.614 467.679 828.541 470.994 831.47 473.25Z" fill="#FF63D3"/>
<path id="Vector_126" d="M801.16 477.47C801.16 477.47 789.38 437.47 803.37 408.03C809.316 395.721 811.109 381.815 808.48 368.4C807.182 362.042 805.304 355.816 802.87 349.8" stroke="#535461" stroke-width="2" stroke-miterlimit="10"/>
<path id="Vector_127" d="M811.57 331.19C811.57 336.09 802.69 350.31 802.69 350.31C802.69 350.31 793.81 336.09 793.81 331.19C793.887 328.888 794.856 326.706 796.512 325.104C798.168 323.503 800.381 322.608 802.685 322.608C804.989 322.608 807.202 323.503 808.858 325.104C810.514 326.706 811.483 328.888 811.56 331.19H811.57Z" fill="#FF63D3"/>
<path id="Vector_128" d="M826.25 358.34C823.59 362.45 808.41 369.56 808.41 369.56C808.41 369.56 808.69 352.8 811.35 348.69C811.966 347.673 812.78 346.791 813.743 346.094C814.706 345.398 815.799 344.902 816.958 344.636C818.116 344.37 819.316 344.339 820.487 344.546C821.657 344.752 822.775 345.191 823.772 345.838C824.77 346.484 825.628 347.324 826.295 348.307C826.962 349.291 827.425 350.399 827.656 351.565C827.887 352.731 827.881 353.931 827.64 355.095C827.398 356.259 826.926 357.362 826.25 358.34Z" fill="#FF63D3"/>
<path id="Vector_129" d="M825.6 404.74C821.22 406.95 804.53 405.42 804.53 405.42C804.53 405.42 813.23 391.09 817.6 388.89C819.694 387.898 822.092 387.763 824.284 388.515C826.475 389.266 828.286 390.845 829.33 392.913C830.374 394.982 830.569 397.376 829.872 399.586C829.175 401.795 827.642 403.645 825.6 404.74Z" fill="#FF63D3"/>
<path id="Vector_130" d="M817.21 439.74C813.27 442.66 796.56 443.97 796.56 443.97C796.56 443.97 802.71 428.38 806.65 425.47C808.546 424.151 810.882 423.623 813.162 423.998C815.441 424.372 817.485 425.621 818.859 427.478C820.233 429.334 820.829 431.654 820.522 433.943C820.214 436.233 819.026 438.312 817.21 439.74V439.74Z" fill="#FF63D3"/>
<path id="Vector_131" d="M789.77 370.51C793.29 373.93 809.67 377.51 809.67 377.51C809.67 377.51 805.67 361.24 802.14 357.82C801.314 356.962 800.324 356.279 799.228 355.812C798.133 355.344 796.955 355.102 795.764 355.1C794.573 355.097 793.393 355.334 792.296 355.796C791.198 356.259 790.205 356.937 789.375 357.791C788.545 358.645 787.895 359.658 787.465 360.768C787.034 361.878 786.831 363.064 786.868 364.254C786.905 365.445 787.181 366.615 787.679 367.697C788.178 368.779 788.889 369.749 789.77 370.55V370.51Z" fill="#FF63D3"/>
<path id="Vector_132" d="M780.47 411.57C784.85 413.78 801.54 412.25 801.54 412.25C801.54 412.25 792.84 397.92 788.47 395.72C786.376 394.728 783.978 394.593 781.786 395.345C779.595 396.097 777.784 397.675 776.74 399.743C775.696 401.812 775.502 404.206 776.198 406.416C776.895 408.625 778.428 410.475 780.47 411.57V411.57Z" fill="#FF63D3"/>
<path id="Vector_133" d="M776.92 452.71C780.86 455.63 797.57 456.94 797.57 456.94C797.57 456.94 791.42 441.35 787.48 438.44C786.546 437.706 785.474 437.166 784.328 436.853C783.182 436.541 781.985 436.461 780.807 436.619C779.63 436.778 778.496 437.171 777.473 437.775C776.451 438.379 775.559 439.183 774.853 440.138C774.146 441.093 773.638 442.18 773.359 443.335C773.08 444.49 773.036 445.689 773.228 446.861C773.421 448.033 773.847 449.155 774.481 450.16C775.115 451.164 775.945 452.032 776.92 452.71V452.71Z" fill="#FF63D3"/>
</g>
<defs>
<linearGradient id="paint0_linear" x1="405.94" y1="486.08" x2="405.94" y2="0" gradientUnits="userSpaceOnUse">
<stop stop-color="#808080" stop-opacity="0.25"/>
<stop offset="0.54" stop-color="#808080" stop-opacity="0.12"/>
<stop offset="1" stop-color="#808080" stop-opacity="0.1"/>
</linearGradient>
<linearGradient id="paint1_linear" x1="907.942" y1="384.438" x2="907.942" y2="384.378" gradientUnits="userSpaceOnUse">
<stop stop-color="#808080" stop-opacity="0.25"/>
<stop offset="0.54" stop-color="#808080" stop-opacity="0.12"/>
<stop offset="1" stop-color="#808080" stop-opacity="0.1"/>
</linearGradient>
<linearGradient id="paint2_linear" x1="289980" y1="41773.6" x2="289980" y2="12224" gradientUnits="userSpaceOnUse">
<stop stop-color="#808080" stop-opacity="0.25"/>
<stop offset="0.54" stop-color="#808080" stop-opacity="0.12"/>
<stop offset="1" stop-color="#808080" stop-opacity="0.1"/>
</linearGradient>
<linearGradient id="paint3_linear" x1="157399" y1="298214" x2="157399" y2="144057" gradientUnits="userSpaceOnUse">
<stop stop-color="#808080" stop-opacity="0.25"/>
<stop offset="0.54" stop-color="#808080" stop-opacity="0.12"/>
<stop offset="1" stop-color="#808080" stop-opacity="0.1"/>
</linearGradient>
<linearGradient id="paint4_linear" x1="980.636" y1="317.56" x2="980.812" y2="317.56" gradientUnits="userSpaceOnUse">
<stop stop-color="#808080" stop-opacity="0.25"/>
<stop offset="0.54" stop-color="#808080" stop-opacity="0.12"/>
<stop offset="1" stop-color="#808080" stop-opacity="0.1"/>
</linearGradient>
<linearGradient id="paint5_linear" x1="981.094" y1="317.992" x2="981.267" y2="317.992" gradientUnits="userSpaceOnUse">
<stop stop-color="#808080" stop-opacity="0.25"/>
<stop offset="0.54" stop-color="#808080" stop-opacity="0.12"/>
<stop offset="1" stop-color="#808080" stop-opacity="0.1"/>
</linearGradient>
<linearGradient id="paint6_linear" x1="981.094" y1="317.56" x2="981.267" y2="317.56" gradientUnits="userSpaceOnUse">
<stop stop-color="#808080" stop-opacity="0.25"/>
<stop offset="0.54" stop-color="#808080" stop-opacity="0.12"/>
<stop offset="1" stop-color="#808080" stop-opacity="0.1"/>
</linearGradient>
<clipPath id="clip0">
<rect width="934" height="618.51" fill="white"/>
</clipPath>
</defs>
</svg>
